<svg width="169" height="98" viewBox="0 0 169 98" fill="none" xmlns="http://www.w3.org/2000/svg">
<path d="M14.4783 36.65L50.3288 10.9622C57.1681 6.06184 66.6944 7.61852 71.6071 14.4354L71.6271 14.4632C76.5395 21.2803 74.9805 30.7799 68.1414 35.6805L32.2909 61.3683C25.4516 66.2688 15.9253 64.712 11.0126 57.895L10.9926 57.8673C6.08015 51.0501 7.63895 41.5505 14.4783 36.65Z" fill="#EA4335" stroke="#1E1E1E" stroke-width="3" stroke-miterlimit="10"/>
<path d="M10.9946 39.9696L11.0145 39.9419C15.9272 33.1249 25.4535 31.5681 32.2929 36.4686L68.1434 62.1564C74.9825 67.057 76.5414 76.5566 71.629 83.3737L71.609 83.4015C66.6964 90.2184 57.17 91.7751 50.3307 86.8747L14.4802 61.1869C7.6409 56.2864 6.08211 46.7868 10.9946 39.9696Z" fill="#4285F4" stroke="#1E1E1E" stroke-width="3" stroke-miterlimit="10"/>
<path d="M100.859 62.1343L136.71 36.4465C143.549 31.5462 153.075 33.1029 157.988 39.9198L158.008 39.9475C162.92 46.7646 161.361 56.2643 154.522 61.1649L118.672 86.8526C111.832 91.7532 102.306 90.1964 97.3934 83.3794L97.3735 83.3516C92.461 76.5345 94.0198 67.0349 100.859 62.1343Z" fill="#F9AB00" stroke="#1E1E1E" stroke-width="3" stroke-miterlimit="10"/>
<path d="M97.3715 14.4735L97.3915 14.4458C102.304 7.62879 111.83 6.072 118.67 10.9725L154.52 36.6603C161.359 41.5609 162.918 51.0606 158.006 57.8777L157.986 57.9054C153.073 64.7223 143.547 66.279 136.708 61.3786L100.857 35.6909C94.0179 30.7903 92.4591 21.2907 97.3715 14.4735Z" fill="#34A853" stroke="#1E1E1E" stroke-width="3" stroke-miterlimit="10"/>
</svg>
